<?xml version="1.0" standalone="no"?>
<!DOCTYPE svg PUBLIC "-//W3C//DTD SVG 20010904//EN"
 "http://www.w3.org/TR/2001/REC-SVG-20010904/DTD/svg10.dtd">
<svg version="1.0" xmlns="http://www.w3.org/2000/svg"
 width="512.000000pt" height="512.000000pt" viewBox="0 0 512.000000 512.000000"
 preserveAspectRatio="xMidYMid meet">
<metadata>
Created by potrace 1.11, written by Peter Selinger 2001-2013
</metadata>
<g transform="translate(0.000000,512.000000) scale(0.100000,-0.100000)"
fill="#000000" stroke="none">
<path d="M728 5088 c-1 -18 -3 -46 -5 -63 -2 -16 -4 -53 -6 -81 -2 -35 -10
-57 -24 -71 -15 -15 -23 -40 -28 -90 -4 -37 -11 -70 -14 -73 -8 -6 -31 -118
-35 -170 -1 -19 -8 -57 -14 -85 -6 -27 -14 -62 -17 -77 -3 -15 -16 -38 -30
-52 -25 -25 -36 -74 -13 -60 7 4 8 3 4 -4 -8 -14 -17 -50 -18 -72 0 -8 -5 -20
-10 -26 -5 -7 -10 -35 -10 -63 -1 -30 -7 -52 -15 -55 -7 -3 -15 -28 -19 -56
-4 -27 -10 -50 -13 -50 -4 0 -7 -8 -7 -17 -2 -54 -22 -118 -62 -203 -12 -25
-22 -51 -22 -57 0 -7 -4 -13 -10 -13 -5 0 -10 -6 -10 -13 0 -7 -11 -28 -23
-47 -30 -43 -51 -110 -72 -220 -9 -47 -25 -110 -35 -140 -10 -30 -23 -76 -30
-102 -7 -27 -15 -48 -19 -48 -4 0 -15 -16 -25 -35 -11 -19 -24 -35 -29 -35 -6
0 -18 -7 -27 -15 -10 -9 -32 -17 -50 -20 -18 -2 -34 -6 -36 -8 -2 -2 -3 -646
-2 -1432 l3 -1428 48 239 c27 132 75 358 107 504 31 146 74 344 94 440 20 96
70 337 112 535 78 372 190 921 196 965 2 14 7 -67 11 -180 4 -113 12 -248 17
-300 6 -52 12 -115 14 -140 3 -25 1 -37 -3 -27 -6 16 -11 11 -28 -25 -27 -54
-51 -133 -58 -186 -7 -56 -24 -131 -34 -151 -5 -9 -11 -29 -14 -46 -3 -16 -10
-43 -15 -60 -12 -38 -29 -117 -38 -175 -3 -25 -10 -49 -14 -55 -7 -9 -45 -166
-58 -238 -2 -15 -8 -30 -13 -33 -5 -3 -9 -16 -9 -29 0 -12 -16 -85 -35 -161
-19 -75 -35 -146 -35 -156 0 -27 -32 -139 -38 -133 -11 11 -42 -52 -42 -84 0
-19 -6 -42 -14 -50 -12 -15 -30 -72 -41 -131 -3 -14 -8 -41 -12 -60 -4 -19 -8
-42 -9 -50 -1 -8 -7 -35 -12 -60 -30 -134 -52 -236 -52 -247 0 -10 60 -13 265
-13 146 0 265 1 265 3 0 1 9 49 21 107 11 58 22 134 25 170 6 75 20 136 34
145 6 3 10 19 10 34 0 16 9 75 21 132 13 63 19 119 15 145 -4 29 0 53 11 74
27 55 54 173 41 181 -9 6 -9 11 0 21 14 17 19 69 8 86 -4 7 -2 12 8 12 11 0
14 16 12 86 -1 55 3 92 11 104 7 9 15 36 19 59 4 22 10 41 14 41 11 0 43 108
35 119 -3 6 1 24 10 40 8 17 14 34 13 38 -5 20 15 123 23 118 5 -4 7 35 5 95
-2 57 0 103 6 106 5 3 8 38 8 77 -2 96 2 188 7 160 6 -32 25 -29 66 12 19 19
38 35 41 35 3 0 6 -12 6 -27 0 -83 71 -363 131 -518 31 -81 43 -129 46 -180 4
-68 4 -70 -24 -87 -40 -24 -189 -143 -252 -203 -71 -67 -85 -93 -117 -215 -26
-99 -28 -117 -28 -320 1 -222 12 -370 41 -548 l17 -102 452 0 c347 0 454 3
457 13 4 9 6 9 6 0 1 -7 9 -13 20 -13 15 0 20 13 31 75 15 88 12 123 -34 355
-47 236 -56 318 -56 492 l0 147 58 84 c95 140 300 360 397 427 l43 29 39 -28
c78 -56 223 -242 223 -284 0 -11 -8 -32 -17 -49 -16 -26 -22 -29 -48 -22 -16
4 -75 10 -130 13 l-100 6 50 40 c28 21 52 41 54 42 2 2 2 6 -2 9 -7 8 -39 -15
-92 -65 -36 -34 -52 -42 -106 -51 -35 -5 -77 -14 -94 -20 l-30 -10 30 5 c206
32 411 31 447 -2 32 -29 48 -69 55 -138 7 -80 -3 -98 -50 -83 -18 5 -93 11
-167 13 l-135 3 105 -9 c144 -14 283 -45 305 -69 23 -26 30 -106 15 -169 -14
-61 -22 -67 -54 -46 -14 9 -62 23 -108 31 -46 8 -91 17 -101 20 -9 3 -17 1
-17 -5 0 -5 17 -13 38 -16 20 -4 51 -9 67 -11 62 -11 126 -36 140 -57 21 -30
19 -83 -6 -134 -22 -45 -115 -137 -130 -127 -5 3 -9 21 -9 40 0 24 4 34 16 34
8 0 12 4 9 10 -3 5 -15 10 -26 10 -17 0 -19 -8 -19 -89 0 -102 -28 -208 -86
-323 -19 -37 -34 -69 -34 -71 0 -2 50 -5 110 -6 61 -1 110 2 110 7 0 16 -36
42 -58 42 -19 0 -22 6 -22 38 0 24 -3 32 -9 24 -15 -25 -20 25 -5 54 8 15 13
32 11 38 -2 6 -12 -6 -21 -28 -9 -21 -13 -43 -9 -50 3 -6 3 -8 -2 -4 -12 11
-47 -62 -42 -88 2 -13 0 -21 -4 -18 -14 9 -10 42 10 82 26 52 71 197 71 232 0
21 8 33 34 49 18 12 53 42 76 67 l42 46 42 -11 c39 -11 123 -1 214 25 18 5 22
2 22 -14 0 -23 -26 -151 -40 -197 -5 -16 -26 -85 -46 -152 -21 -67 -41 -120
-46 -117 -4 3 -5 -2 -2 -11 5 -12 19 -15 62 -13 l55 3 41 95 c83 192 329 661
355 678 39 25 102 73 141 108 19 17 52 43 73 59 45 34 47 38 -39 -145 -34 -74
-77 -173 -94 -220 -55 -152 -84 -388 -64 -534 l7 -46 235 2 235 3 22 75 c26
92 26 92 143 270 87 132 115 164 297 345 110 110 221 214 245 230 25 17 50 35
55 41 13 14 97 69 136 89 29 16 39 35 17 35 -7 0 -70 -39 -142 -87 -106 -71
-162 -119 -301 -258 -179 -178 -245 -254 -339 -394 -51 -77 -56 -82 -56 -54 0
63 35 232 76 367 14 43 29 99 35 124 5 26 42 104 81 175 127 232 232 484 273
654 10 40 21 73 25 73 7 0 77 -81 222 -253 65 -78 108 -137 166 -226 60 -93
86 -155 78 -187 -3 -12 5 -47 20 -79 41 -94 54 -172 64 -404 10 -213 9 -252
-10 -296 -5 -11 -23 -65 -41 -120 -17 -55 -34 -106 -37 -113 -6 -17 94 -17
101 1 4 9 6 9 6 0 1 -7 5 -13 10 -13 9 0 9 34 -9 520 -10 264 -40 535 -80 725
-87 417 -90 439 -106 820 -9 198 -20 727 -24 1175 -9 884 -7 853 -68 1070 -39
136 -71 218 -141 366 -75 155 -117 217 -236 342 l-97 102 -1335 0 -1335 0 -56
-47 c-31 -26 -47 -36 -35 -23 12 14 23 34 25 45 3 17 -3 20 -42 23 l-46 3 -18
-93 c-19 -91 -20 -94 -81 -158 -80 -85 -188 -236 -239 -335 -30 -59 -31 -57
-10 10 8 28 28 118 44 200 16 83 38 194 49 248 12 55 21 105 21 113 0 11 -27
14 -145 14 l-145 0 -2 -32z m3422 -70 c74 -83 75 -85 14 -22 -84 86 -109 114
-102 114 3 0 43 -42 88 -92z m19 -90 c1 -5 -3 -8 -9 -8 -5 0 -10 12 -9 28 0
24 1 25 9 7 5 -11 9 -23 9 -27z m107 -62 l15 -31 -21 28 c-12 15 -25 25 -29
23 -4 -3 -7 4 -7 14 0 25 22 7 42 -34z m42 -85 c-12 -4 -28 17 -28 39 0 10 7
7 20 -10 11 -15 15 -26 8 -29z m30 -32 c9 -13 9 -16 -3 -16 -8 0 -15 9 -15 20
0 11 1 18 3 16 1 -2 8 -11 15 -20z m57 -127 c-3 -3 -9 5 -12 18 l-7 25 -8 -25
c-6 -21 -7 -20 -3 7 2 18 0 35 -5 38 -6 3 -10 14 -10 23 1 9 12 -5 26 -31 14
-27 23 -52 19 -55z m-277 -27 c-3 -3 -9 2 -12 12 -6 14 -5 15 5 6 7 -7 10 -15
7 -18z m56 9 c9 -24 2 -26 -12 -4 -7 11 -8 20 -3 20 5 0 12 -7 15 -16z m273
-76 c44 -106 47 -117 29 -124 -12 -5 -13 -10 -4 -24 14 -22 29 -17 22 8 -5 14
-4 14 4 2 15 -23 64 -239 67 -295 1 -27 1 -35 -2 -17 -2 17 -7 32 -11 32 -4 0
-7 15 -8 34 0 19 -7 60 -14 92 -11 43 -16 52 -21 38 -6 -13 -8 -5 -7 23 1 23
-1 46 -5 49 -4 4 -7 3 -7 -3 0 -6 -9 -9 -21 -6 -20 6 -21 10 -15 75 7 74 -7
124 -26 97 -7 -10 -8 -7 -4 10 3 13 -2 37 -10 53 -8 15 -11 28 -6 28 5 0 23
-33 39 -72z m-261 -24 c24 -84 34 -163 34 -276 0 -60 2 -108 4 -108 2 0 32 16
66 35 64 36 136 62 146 53 3 -4 -2 -20 -10 -37 -21 -39 -20 -44 4 -36 28 9 25
-5 -16 -66 -35 -54 -104 -124 -139 -145 -19 -10 -18 -13 7 -70 14 -32 31 -75
37 -94 15 -51 41 -207 41 -249 l-1 -36 -24 30 -25 30 -6 -34 c-7 -32 -8 -33
-22 -15 -40 53 -86 197 -101 314 -6 48 -10 60 -16 45 -36 -92 -113 -228 -152
-270 l-46 -50 7 35 c3 19 9 53 13 75 l6 40 -32 -28 c-33 -27 -51 -34 -51 -18
0 37 72 190 127 270 24 35 43 64 41 65 -87 51 -179 147 -228 240 -36 69 -38
91 -10 83 25 -7 34 7 20 32 -14 28 3 35 39 16 32 -16 119 -110 160 -173 14
-22 32 -48 39 -58 12 -18 13 -18 7 1 -28 85 -45 362 -28 445 l6 33 18 -24 18
-24 11 30 c11 29 12 29 26 10 8 -11 22 -43 30 -71z m-129 44 c-3 -8 -6 -5 -6
6 -1 11 2 17 5 13 3 -3 4 -12 1 -19z m137 6 c3 -8 2 -12 -4 -9 -6 3 -10 10
-10 16 0 14 7 11 14 -7z m19 -34 c-3 -12 -8 -19 -11 -16 -5 6 5 36 12 36 2 0
2 -9 -1 -20z m-163 -22 c0 -19 -2 -20 -10 -8 -13 19 -13 30 0 30 6 0 10 -10
10 -22z m-1974 -30 c-3 -17 -8 -33 -10 -36 -2 -2 -58 -14 -123 -27 -65 -13
-133 -28 -150 -34 -32 -9 -33 -8 -32 17 2 67 11 76 74 84 33 4 87 11 120 16
33 5 75 10 94 11 33 1 33 0 27 -31z m60 -278 c30 -279 91 -501 191 -686 23
-44 43 -88 43 -97 0 -9 5 -17 10 -17 6 0 10 14 10 30 0 35 4 36 37 10 69 -54
148 -45 319 35 53 25 101 45 105 45 5 0 18 -18 29 -40 11 -22 23 -40 25 -40 3
0 2 25 -1 55 l-7 55 48 20 c26 11 48 19 49 18 14 -26 98 -148 103 -148 3 0 3
35 0 78 -9 112 -6 119 67 141 33 11 54 20 45 20 -9 1 -37 -5 -62 -13 -25 -7
-48 -11 -51 -8 -4 3 -6 28 -6 56 0 28 -11 172 -25 321 -14 148 -25 276 -25
285 1 22 18 -10 56 -105 77 -191 107 -260 164 -375 33 -67 60 -126 60 -131 0
-5 -15 -9 -32 -9 -18 0 -40 -5 -48 -11 -11 -7 -1 -8 36 -4 l51 7 38 -69 c53
-96 158 -264 162 -260 2 2 -1 28 -7 57 -14 74 -13 79 10 45 18 -27 20 -41 15
-135 -19 -338 -53 -637 -102 -884 -14 -72 -27 -147 -29 -166 l-3 -35 10 38 c8
26 23 46 53 66 77 53 304 172 339 178 33 5 34 7 51 77 22 94 37 118 29 46 -6
-53 -5 -55 13 -38 10 9 72 42 137 74 86 42 117 62 117 76 0 42 39 5 91 -87 32
-57 34 -65 33 -150 -1 -103 -22 -188 -70 -291 -55 -117 -207 -242 -351 -287
-26 -8 -93 -18 -148 -21 l-99 -6 -46 -43 c-247 -238 -593 -417 -914 -472 -49
-8 -115 -15 -147 -15 l-58 0 -54 68 c-65 81 -145 157 -176 167 -28 9 -76 -23
-177 -118 l-74 -69 -57 17 c-160 45 -372 145 -465 219 -112 89 -235 269 -258
377 -21 97 -8 328 30 503 27 127 30 156 21 190 -47 176 -42 536 11 839 6 37
14 70 18 72 4 3 10 -19 13 -49 8 -83 37 -186 70 -251 34 -69 106 -175 118
-175 5 0 9 64 9 143 0 135 2 148 31 228 17 46 32 85 34 87 4 5 238 -118 251
-132 6 -6 17 -31 25 -56 l13 -45 4 33 c4 40 23 41 69 6 l33 -25 0 171 c0 136
5 200 25 318 39 227 85 431 133 587 4 11 10 -17 14 -65 5 -47 15 -150 24 -230z
m322 286 c2 -11 0 -16 -6 -12 -12 7 -255 -9 -297 -20 -23 -6 -25 -3 -25 25 l0
31 162 -2 c150 -3 163 -4 166 -22z m326 -2 c130 -15 150 -19 142 -33 -3 -4
-47 -2 -98 5 -51 7 -149 14 -218 16 -114 3 -146 10 -134 29 5 9 151 1 308 -17z
m1445 -9 c5 2 6 -8 3 -23 l-6 -27 -7 25 c-4 14 -7 32 -7 40 0 10 2 9 5 -3 2
-9 8 -15 12 -12z m-2487 -84 c-7 -19 -34 -32 -148 -71 -182 -62 -275 -101
-406 -166 -117 -59 -133 -64 -119 -36 5 9 18 50 30 89 14 45 29 77 41 83 59
32 498 162 580 172 20 2 26 -2 28 -22 2 -14 -1 -36 -6 -49z m2305 -28 c-2 -21
-4 -4 -4 37 0 41 2 58 4 38 2 -21 2 -55 0 -75z m-1059 91 c12 -4 22 -10 22
-15 0 -14 -34 -10 -56 6 -21 16 -8 20 34 9z m80 -22 c3 -9 -2 -13 -14 -10 -9
1 -19 9 -22 16 -3 9 2 13 14 10 9 -1 19 -9 22 -16z m-557 -102 c11 -36 24 -74
29 -85 5 -11 21 -54 36 -95 32 -88 169 -400 219 -500 19 -38 35 -76 35 -83 0
-29 -353 -107 -414 -91 -26 6 -26 6 -26 111 0 105 11 129 25 51 6 -35 8 -39
15 -23 26 66 51 358 53 637 1 93 3 162 5 155 2 -6 12 -41 23 -77z m1726 43
c-3 -10 -5 -4 -5 12 0 17 2 24 5 18 2 -7 2 -21 0 -30z m-808 -4 c45 -9 52 -14
59 -42 11 -42 -2 -44 -66 -12 -55 27 -67 39 -57 55 8 12 3 12 64 -1z m168 -92
c19 -22 32 -41 29 -44 -7 -8 -92 25 -104 40 -5 7 -13 27 -17 46 l-7 33 32 -18
c17 -11 48 -36 67 -57z m364 46 c13 -16 12 -17 -3 -4 -17 13 -22 21 -14 21 2
0 10 -8 17 -17z m96 -65 c-3 -8 -6 -5 -6 6 -1 11 2 17 5 13 3 -3 4 -12 1 -19z
m-2960 0 c-3 -7 -15 -49 -28 -94 l-23 -81 -90 -58 c-140 -90 -201 -153 -252
-260 -24 -49 -43 -83 -44 -74 -1 61 122 544 145 568 8 8 6 -18 -6 -65 -13 -49
-8 -64 15 -45 16 13 264 120 279 121 5 0 7 -6 4 -12z m3150 -60 c-2 -13 -4 -3
-4 22 0 25 2 35 4 23 2 -13 2 -33 0 -45z m220 46 c-3 -3 -12 -4 -19 -1 -8 3
-5 6 6 6 11 1 17 -2 13 -5z m-117 -24 c-8 -5 -19 -10 -25 -10 -5 0 -3 5 5 10
8 5 20 10 25 10 6 0 3 -5 -5 -10z m132 -39 c2 -17 1 -28 -4 -25 -8 5 -12 54
-4 54 2 0 6 -13 8 -29z m-2737 -447 c9 -49 19 -99 21 -110 6 -21 3 -21 -93 12
-54 19 -102 35 -107 37 -7 2 111 391 142 467 3 8 9 -60 13 -151 4 -91 15 -206
24 -255z m2136 399 c13 -16 12 -17 -3 -4 -17 13 -22 21 -14 21 2 0 10 -8 17
-17z m570 -46 c-10 -9 -11 -8 -5 6 3 10 9 15 12 12 3 -3 0 -11 -7 -18z m145
-292 c3 -93 1 -201 -4 -240 l-9 -70 -2 65 c-1 79 -26 137 -100 233 -29 37 -49
72 -46 77 3 6 29 -8 58 -29 28 -22 53 -38 55 -36 10 9 30 166 27 205 l-4 45
10 -40 c5 -22 12 -116 15 -210z m-1669 -100 l51 -84 -40 -16 c-22 -9 -42 -14
-44 -12 -7 6 -30 197 -25 197 3 -1 29 -39 58 -85z m1420 63 c-3 -8 -6 -5 -6 6
-1 11 2 17 5 13 3 -3 4 -12 1 -19z m20 -95 c-3 -10 -5 -4 -5 12 0 17 2 24 5
18 2 -7 2 -21 0 -30z m-2482 -137 c6 -20 5 -20 -14 3 -15 16 -21 36 -20 65 l1
41 14 -44 c7 -24 16 -53 19 -65z m2492 52 c-2 -13 -4 -5 -4 17 -1 22 1 32 4
23 2 -10 2 -28 0 -40z m10 -80 c-3 -8 -6 -5 -6 6 -1 11 2 17 5 13 3 -3 4 -12
1 -19z m200 -175 c-2 -21 -4 -4 -4 37 0 41 2 58 4 38 2 -21 2 -55 0 -75z m0
-145 c-2 -18 -4 -4 -4 32 0 36 2 50 4 33 2 -18 2 -48 0 -65z m0 -365 c-2 -16
-4 -3 -4 27 0 30 2 43 4 28 2 -16 2 -40 0 -55z m-3690 -610 c-3 -10 -5 -4 -5
12 0 17 2 24 5 18 2 -7 2 -21 0 -30z m2761 -395 c-6 -114 -8 -118 -105 -312
-104 -208 -150 -265 -343 -422 -61 -49 -86 -63 -132 -72 -115 -23 -163 -42
-218 -87 -30 -25 -58 -45 -62 -45 -5 0 -8 -4 -8 -10 0 -19 17 -10 65 32 38 33
64 46 131 64 46 12 84 19 84 16 0 -14 -219 -153 -305 -194 -52 -25 -106 -43
-137 -46 l-50 -5 7 64 c8 81 -10 136 -53 164 -31 20 -31 22 -32 100 0 66 -5
87 -25 123 l-25 43 22 42 c17 35 19 46 10 72 l-11 30 22 -25 c12 -14 39 -46
59 -70 20 -25 39 -42 43 -39 3 3 -15 31 -40 61 -25 30 -45 58 -45 61 0 3 17 9
38 12 113 18 294 60 369 86 95 32 265 113 362 172 45 27 66 35 71 27 5 -8 10
-3 14 12 3 12 23 35 43 50 21 15 81 65 133 112 52 47 101 86 109 86 11 0 13
-19 9 -102z m-17 -244 c-7 -45 -17 -75 -32 -90 -22 -23 -49 -32 -49 -16 0 12
84 182 88 178 2 -3 -1 -35 -7 -72z m-1723 -130 c17 -4 32 -9 32 -13 -1 -9 -70
-85 -73 -80 -2 2 -13 28 -25 58 l-22 53 28 -6 c15 -3 42 -9 60 -12z m-715
-259 l3 -170 -86 42 c-106 52 -140 61 -140 39 0 -9 5 -16 11 -16 12 0 184 -81
206 -97 7 -5 22 -59 33 -119 11 -60 31 -154 45 -208 14 -54 24 -101 21 -103
-5 -6 -46 130 -47 159 0 12 -4 32 -9 43 -7 14 -8 8 -4 -20 4 -26 2 -35 -4 -27
-7 11 -10 11 -16 -3 -3 -9 -9 -14 -14 -11 -4 2 -14 1 -22 -4 -11 -7 -11 -13 3
-34 9 -14 17 -31 16 -38 0 -7 -13 12 -28 42 -47 95 -71 135 -71 123 0 -7 -7
-10 -16 -6 -12 4 -14 0 -9 -23 5 -29 5 -29 -6 -4 -7 15 -13 20 -16 13 -6 -15
-73 -18 -73 -3 0 6 -11 15 -25 20 -18 7 -25 17 -25 35 0 16 -6 25 -15 25 -8 0
-16 10 -16 23 -2 20 -2 20 -7 -3 -4 -23 -5 -24 -13 -5 -6 17 -8 17 -8 3 -1
-22 -31 -24 -31 -3 0 8 -4 15 -9 15 -5 0 -12 8 -14 18 -3 9 -6 -17 -7 -58 -1
-41 -6 -106 -10 -145 -6 -47 -6 -24 -3 70 6 154 28 259 63 308 18 24 20 31 9
38 -18 11 121 148 241 237 79 59 85 62 87 40 1 -12 4 -99 6 -193z m-453 15 c0
-5 -4 -10 -10 -10 -5 0 -10 5 -10 10 0 6 5 10 10 10 6 0 10 -4 10 -10z m57
-742 c-2 -29 -3 -8 -3 47 0 55 1 79 3 53 2 -26 2 -71 0 -100z m442 27 c0 -5
-6 1 -14 15 -8 14 -14 30 -14 35 0 6 6 -1 14 -15 8 -14 14 -29 14 -35z m97
-72 c-5 -5 -36 74 -36 90 1 6 10 -10 20 -37 11 -28 18 -51 16 -53z m22 -38
c-3 -3 -9 2 -12 12 -6 14 -5 15 5 6 7 -7 10 -15 7 -18z m-551 -57 c-3 -8 -6
-5 -6 6 -1 11 2 17 5 13 3 -3 4 -12 1 -19z m10 -80 c-3 -8 -6 -5 -6 6 -1 11 2
17 5 13 3 -3 4 -12 1 -19z m896 -81 c-7 -11 -9 -7 -17 28 l-6 30 14 -25 c8
-14 12 -28 9 -33z m36 -62 c0 -5 -6 1 -14 15 -12 21 -14 22 -15 6 0 -11 -3
-17 -6 -13 -3 3 -3 16 1 28 l7 22 14 -24 c7 -13 13 -28 13 -34z m601 -6 c0
-10 -7 -19 -15 -19 -16 0 -19 9 -9 34 8 20 24 11 24 -15z m-623 -21 c-3 -8 -6
-5 -6 6 -1 11 2 17 5 13 3 -3 4 -12 1 -19z m30 -30 c-3 -7 -5 -2 -5 12 0 14 2
19 5 13 2 -7 2 -19 0 -25z"/>
<path d="M4162 4108 c-7 -7 -11 -28 -11 -47 1 -20 3 -27 6 -16 2 11 6 30 9 43
2 12 11 22 19 22 24 0 38 -43 31 -93 -10 -69 -45 -87 -59 -32 -3 12 -5 8 -4
-10 2 -23 7 -31 24 -33 30 -4 53 42 53 106 0 50 -12 72 -40 72 -9 0 -21 -5
-28 -12z"/>
<path d="M2290 3491 c0 -18 39 -91 49 -91 6 0 -2 21 -16 48 -32 57 -33 59 -33
43z"/>
<path d="M2759 3353 l-36 -4 28 -31 c45 -47 39 -61 -22 -53 -53 7 -73 -3 -62
-31 5 -12 25 -18 93 -28 28 -4 29 -11 10 -111 -7 -33 -10 -103 -7 -156 4 -102
18 -139 69 -185 74 -68 211 -5 279 128 31 61 61 195 56 251 -2 26 -4 47 -3 47
1 1 60 5 132 9 139 9 174 20 174 52 0 19 -5 19 -315 13 l-316 -7 -39 38 c-22
22 -40 42 -40 46 0 3 19 11 43 16 42 11 24 13 -44 6z"/>
<path d="M2615 3329 c-5 -7 8 -8 41 -3 64 9 68 14 11 14 -25 0 -49 -5 -52 -11z"/>
<path d="M1755 3270 l-40 -7 52 -2 c28 0 55 4 58 9 7 11 -9 11 -70 0z"/>
<path d="M1324 3172 l17 -32 -46 0 c-38 0 -45 -3 -45 -19 0 -26 15 -35 74 -41
l49 -5 1 -145 c1 -128 4 -150 22 -185 38 -71 81 -94 138 -75 94 31 155 179
142 346 l-6 80 83 20 c76 18 82 21 82 44 0 29 13 28 -160 7 -66 -8 -159 -18
-206 -22 l-86 -7 -38 34 -38 33 17 -33z"/>
<path d="M4040 2579 c-82 -50 -172 -124 -205 -170 l-37 -49 21 -26 c24 -31 36
-83 27 -120 -4 -14 -25 -45 -48 -70 -22 -24 -39 -47 -36 -49 3 -3 26 17 51 44
31 33 48 60 49 78 2 54 -4 88 -21 118 -17 29 -17 32 3 62 29 45 62 57 111 41
81 -27 100 -103 47 -188 -18 -28 -27 -48 -21 -44 26 16 69 100 69 134 0 51
-36 102 -82 115 -20 5 -39 13 -43 17 -10 10 144 108 170 108 54 0 87 -22 111
-74 13 -28 24 -43 24 -33 0 32 -40 96 -70 112 -40 21 -79 19 -120 -6z"/>
<path d="M1977 2503 c-12 -12 -7 -22 8 -17 8 4 15 10 15 15 0 11 -14 12 -23 2z"/>
<path d="M3919 2164 c-21 -24 -22 -26 -3 -16 25 13 50 42 37 42 -5 0 -20 -12
-34 -26z"/>
<path d="M3869 2123 c-13 -16 -12 -17 4 -4 16 13 21 21 13 21 -2 0 -10 -8 -17
-17z"/>
<path d="M2037 1803 c-14 -13 -6 -20 16 -16 17 3 43 -11 96 -52 73 -58 104
-70 53 -22 -26 25 -139 97 -152 97 -4 0 -10 -3 -13 -7z"/>
<path d="M1172 700 c0 -14 2 -19 5 -12 2 6 2 18 0 25 -3 6 -5 1 -5 -13z"/>
<path d="M4650 2249 c0 -4 19 -32 43 -62 23 -31 117 -157 210 -280 l167 -224
0 -54 c0 -30 -4 -92 -10 -139 -5 -47 -21 -202 -35 -345 -61 -639 -105 -1083
-109 -1112 l-5 -33 105 0 104 0 -1 1023 c-1 562 -5 991 -10 952 -22 -203 -32
-255 -45 -255 -8 0 -14 4 -14 9 0 4 -10 20 -22 34 -13 14 -45 56 -73 94 -27
37 -52 70 -55 73 -3 3 -51 66 -107 140 -124 163 -142 187 -143 179z"/>
<path d="M1938 1183 c7 -3 16 -2 19 1 4 3 -2 6 -13 5 -11 0 -14 -3 -6 -6z"/>
<path d="M1850 1170 c-12 -8 -12 -10 5 -9 11 0 29 4 40 9 18 8 18 9 -5 9 -14
0 -32 -4 -40 -9z"/>
<path d="M2060 980 c0 -5 5 -10 11 -10 5 0 7 5 4 10 -3 6 -8 10 -11 10 -2 0
-4 -4 -4 -10z"/>
<path d="M4486 965 c-35 -18 -123 -90 -153 -125 -27 -31 -28 -43 -4 -94 76
-165 61 -206 -221 -587 -59 -81 -108 -149 -108 -153 0 -3 13 -6 29 -6 24 0 53
25 178 157 337 355 376 416 402 623 10 77 -6 176 -30 191 -21 13 -61 11 -93
-6z"/>
</g>
</svg>
